Land_normalized_precision_landing11_filtered_grf
version=1
nRows=15
nColumns=37
inDegrees=yes
endheader
time		1_ground_force_vx		1_ground_force_vy		1_ground_force_vz		1_ground_force_px		1_ground_force_py		1_ground_force_pz		1_ground_torque_x		1_ground_torque_y		1_ground_torque_z		2_ground_force_vx		2_ground_force_vy		2_ground_force_vz		2_ground_force_px		2_ground_force_py		2_ground_force_pz		2_ground_torque_x		2_ground_torque_y		2_ground_torque_z		3_ground_force_vx		3_ground_force_vy		3_ground_force_vz		3_ground_force_px		3_ground_force_py		3_ground_force_pz		3_ground_torque_x		3_ground_torque_y		3_ground_torque_z		4_ground_force_vx		4_ground_force_vy		4_ground_force_vz		4_ground_force_px		4_ground_force_py		4_ground_force_pz		4_ground_torque_x		4_ground_torque_y		4_ground_torque_z		
1.167000		-16.882300		1146.758808		296.476931		0.064201		0.000000		0.174924		-0.466247		31.670619		8.187954		-3.440467		760.586552		162.095832		-0.140432		0.000000		0.176786		-0.115978		25.639231		5.464220		1.646265		-0.788732		-0.322465		0.381677		1.275787		1.868017		0.010068		-0.008028		0.006637		-2.239228		0.000265		-0.170544		-0.350926		1.268813		1.860802		0.007621		0.003665		-0.023499		
1.169576		-14.608724		1100.039656		286.394961		0.063661		0.000000		0.174629		-0.401060		30.199814		7.862508		0.730589		749.604842		155.778417		-0.140803		0.000000		0.177352		0.024791		25.429800		5.284664		1.661161		-0.829373		-0.310187		0.381701		1.275798		1.867960		0.012026		-0.005974		0.007750		-2.259169		-0.008255		-0.216721		-0.350902		1.268801		1.860796		0.006700		0.001692		-0.021046		
1.172152		-13.531702		1054.101581		278.093634		0.063099		0.000000		0.174007		-0.366310		28.535098		7.528126		5.388570		739.120724		150.021103		-0.141249		0.000000		0.177786		0.185240		25.404474		5.156390		1.731159		-0.848896		-0.324273		0.381718		1.275809		1.867903		0.014151		-0.005946		0.008584		-2.284788		0.002200		-0.266714		-0.350881		1.268788		1.860784		0.005968		-0.000816		-0.018877		
1.174727		-13.596287		1009.232347		271.456729		0.062486		0.000000		0.172962		-0.359624		26.694923		7.180185		11.026116		728.827990		145.241483		-0.141863		0.000000		0.178034		0.389261		25.725424		5.126560		1.836168		-0.847127		-0.360498		0.381730		1.275820		1.867848		0.016232		-0.007751		0.008941		-2.312980		0.025151		-0.313151		-0.350862		1.268777		1.860768		0.005451		-0.003272		-0.017377		
1.177303		-14.676288		966.113089		266.135069		0.061882		0.000000		0.171611		-0.376433		24.780996		6.826366		17.812413		718.626084		141.558560		-0.142701		0.000000		0.178131		0.655538		26.442313		5.208720		1.944982		-0.822670		-0.406525		0.381736		1.275831		1.867801		0.017990		-0.010902		0.008653		-2.338823		0.049668		-0.344488		-0.350847		1.268770		1.860746		0.005064		-0.005219		-0.016735		
1.179879		-16.600798		925.562767		261.730801		0.061404		0.000000		0.170217		-0.411137		22.923641		6.482308		25.473462		708.523682		138.707076		-0.143749		0.000000		0.178170		0.987255		27.456373		5.375101		2.022401		-0.774591		-0.445469		0.381738		1.275844		1.867759		0.019121		-0.014754		0.007646		-2.358257		0.064990		-0.347277		-0.350834		1.268768		1.860716		0.004661		-0.006413		-0.016876		
1.182455		-19.164928		888.277611		258.008274		0.061152		0.000000		0.169038		-0.457857		21.221734		6.164027		33.372997		698.550745		136.135106		-0.144911		0.000000		0.178249		1.364238		28.554570		5.564773		2.037620		-0.705567		-0.461473		0.381736		1.275859		1.867723		0.019391		-0.018581		0.005971		-2.369765		0.064185		-0.310447		-0.350823		1.268770		1.860680		0.004127		-0.006843		-0.017473		
1.185030		-22.134073		854.700340		254.904480		0.061160		0.000000		0.168197		-0.510512		19.713482		5.879307		40.716307		688.718832		133.245974		-0.146037		0.000000		0.178429		1.743437		29.489897		5.705385		1.972612		-0.623918		-0.445235		0.381732		1.275876		1.867687		0.018743		-0.021621		0.003830		-2.374932		0.045637		-0.230145		-0.350812		1.268776		1.860636		0.003461		-0.006730		-0.018026		
1.187606		-25.259324		825.009346		252.357410		0.061399		0.000000		0.167655		-0.562993		18.388873		5.624839		46.815287		679.028734		129.671428		-0.146991		0.000000		0.178721		2.073528		30.074702		5.743231		1.827597		-0.542343		-0.397068		0.381727		1.275897		1.867644		0.017348		-0.023164		0.001552		-2.378182		0.012503		-0.113278		-0.350798		1.268783		1.860586		0.002814		-0.006444		-0.018037		
1.190182		-28.329880		799.157152		250.133846		0.061801		0.000000		0.167262		-0.610414		17.219820		5.389720		51.341797		669.484913		125.443160		-0.147715		0.000000		0.179096		2.320056		30.252675		5.668510		1.620255		-0.472993		-0.325664		0.381723		1.275917		1.867590		0.015550		-0.022703		-0.000471		-2.385691		-0.029197		0.022960		-0.350784		1.268789		1.860530		0.002424		-0.006384		-0.017208		
1.192758		-31.217341		777.012166		247.816786		0.062283		0.000000		0.166849		-0.651349		16.212875		5.170838		54.416417		660.092039		120.961029		-0.148255		0.000000		0.179511		2.482072		30.108381		5.517316		1.379292		-0.422789		-0.243168		0.381721		1.275936		1.867522		0.013744		-0.020015		-0.001883		-2.403729		-0.072686		0.155859		-0.350772		1.268792		1.860471		0.002516		-0.006826		-0.015566		
1.195333		-33.874325		758.436591		244.978960		0.062760		0.000000		0.166301		-0.687984		15.404069		4.975586		56.504757		650.840213		116.814066		-0.148727		0.000000		0.179918		2.588980		29.820675		5.352269		1.137992		-0.391639		-0.160470		0.381722		1.275952		1.867438		0.012231		-0.015251		-0.002464		-2.436495		-0.111659		0.263729		-0.350764		1.268791		1.860409		0.003175		-0.007836		-0.013476		
1.197909		-36.290932		743.347626		241.396236		0.063178		0.000000		0.165588		-0.722990		14.809127		4.809145		58.146591		641.701435		113.537997		-0.149249		0.000000		0.180272		2.679954		29.575712		5.232909		0.927889		-0.373795		-0.084307		0.381723		1.275965		1.867343		0.011128		-0.008958		-0.002200		-2.483720		-0.141135		0.332224		-0.350761		1.268785		1.860345		0.004292		-0.009295		-0.011491		
1.200485		-38.439753		731.735939		237.134563		0.063540		0.000000		0.164778		-0.755766		14.386719		4.662322		59.663192		632.639903		111.405823		-0.149875		0.000000		0.180533		2.780151		29.479377		5.191222		0.773512		-0.361506		-0.016622		0.381722		1.275978		1.867246		0.010367		-0.001992		-0.001283		-2.539035		-0.158439		0.357620		-0.350765		1.268775		1.860281		0.005570		-0.010988		-0.010108		
1.203061		-40.262429		723.654839		232.461901		0.063900		0.000000		0.164005		-0.781990		14.055107		4.514968		60.997943		623.618145		110.323487		-0.150565		0.000000		0.180676		2.886507		29.510410		5.220652		0.690476		-0.349682		0.043341		0.381716		1.275993		1.867154		0.009796		0.004675		-0.000041		-2.590467		-0.164010		0.346454		-0.350772		1.268764		1.860219		0.006645		-0.012734		-0.009550		
